<svg width="119" height="40" viewBox="0 0 119 40" fill="none" xmlns="http://www.w3.org/2000/svg">
<path d="M25.9688 15.324C23.5224 15.324 22.1451 17.0303 21.6647 17.7167C20.8235 16.3341 19.7627 15.324 17.5655 15.324C14.9978 15.324 13.1171 17.4618 13.1171 17.4618V16.2899C13.1171 15.5446 12.194 15.324 11.7119 15.324H9.25244V29.6903H12.3547C13.3122 29.6903 13.3237 28.7603 13.3237 28.2912V21.2013C13.3237 20.5485 13.5839 19.9224 14.047 19.4608C14.5101 18.9992 15.1381 18.7399 15.793 18.7399C16.448 18.7399 17.076 18.9992 17.5391 19.4608C18.0022 19.9224 18.2624 20.5485 18.2624 21.2013V29.6903H22.2992V21.2013C22.2992 20.5485 22.5594 19.9224 23.0225 19.4608C23.4856 18.9992 24.1136 18.7399 24.7686 18.7399C25.4235 18.7399 26.0515 18.9992 26.5146 19.4608C26.9777 19.9224 27.2379 20.5485 27.2379 21.2013V29.6903H31.2846V20.1569C31.2846 17.7674 29.2645 15.324 25.9688 15.324Z" fill="#F55523"/>
<path d="M45.202 17.488C44.5691 16.8473 43.0049 15.3518 39.9371 15.3518C36.8693 15.3518 35.305 16.8342 34.6721 17.488C34.0392 18.1417 32.6914 19.7761 32.6914 22.8585C32.6914 25.8985 34.0376 27.5607 34.6721 28.2014C35.3067 28.842 36.8824 30.1888 39.9371 30.1888C42.9918 30.1888 44.5691 28.8404 45.202 28.2014C45.8349 27.5623 47.1844 25.8985 47.1844 22.8585C47.1844 19.7761 45.8366 18.1221 45.202 17.488ZM42.4867 25.9541C42.2375 26.3839 41.5374 27.3662 39.9371 27.3662C38.3368 27.3662 37.6415 26.3856 37.3874 25.9541C37.1513 25.5504 36.702 24.6041 36.702 22.8487C36.702 21.0934 37.1365 20.1455 37.3874 19.7238C37.6383 19.3021 38.3171 18.1793 39.9371 18.1793C41.557 18.1793 42.2326 19.3038 42.4867 19.7238C42.7409 20.1438 43.1738 21.0673 43.1738 22.8487C43.1738 24.6302 42.7228 25.5438 42.4867 25.9475V25.9541Z" fill="#F55523"/>
<path d="M57.1095 15.3453C53.9122 15.3453 52.6316 17.4079 52.6316 17.4079V10.7543C52.6316 10.009 51.8118 9.78998 51.2264 9.78998H48.5898V29.6903H51.4855C52.443 29.6903 52.4529 28.7603 52.4529 28.2912V28.2651C52.8546 28.8747 54.027 30.1839 57.1177 30.1839C61.0529 30.1839 62.9254 26.3888 62.9254 22.6837C62.9172 17.6269 59.8904 15.3453 57.1095 15.3453ZM55.7109 26.9805C53.922 26.9805 52.4955 25.5259 52.4955 22.7523C52.4955 21.1179 52.8743 20.237 53.4646 19.5996C53.7556 19.3008 54.1052 19.0649 54.4917 18.9066C54.8782 18.7483 55.2932 18.671 55.7109 18.6794C58.4229 18.6794 58.9263 21.3189 58.9263 22.7523C58.9263 24.0059 58.5606 26.9805 55.7109 26.9805Z" fill="#F55523"/>
<path d="M75.2996 10.7543C75.2996 10.009 74.4798 9.78998 73.896 9.78998H71.2578V29.6903H75.2996V10.7543Z" fill="#F55523"/>
<path d="M68.613 13.6439H64.5713V17.671H68.613V13.6439Z" fill="#F55523"/>
<path d="M68.6114 29.6903V19.7401C68.6114 18.9948 67.7916 18.7742 67.2079 18.7742H64.5713V29.6903" fill="#F55523"/>
<path d="M81.9632 18.7742H77.9214V29.6903H81.9632V18.7742Z" fill="#F55523"/>
<path d="M81.9615 13.6439H77.9214V17.671H81.9615V13.6439Z" fill="#F55523"/>
<path d="M103.677 15.3175C100.716 15.3175 98.327 17.0287 97.9384 18.7072C97.8498 19.0896 97.7744 19.5881 98.5795 19.7042L101.267 20.103C101.267 19.3969 101.651 18.1286 103.677 18.1286C106.376 18.1286 106.122 19.6404 106.122 20.5802C106.122 22.5415 97.2021 20.6537 97.2021 26.111C97.2021 29.061 99.4239 30.2133 101.698 30.2133C103.636 30.2133 105.346 29.1362 105.984 28.5413C106.002 28.9744 106.032 29.6854 106.592 29.6854H109.742V19.2253C109.742 15.7767 105.648 15.3175 103.677 15.3175ZM102.787 27.51C101.993 27.51 101.091 27.0622 101.091 25.6795C101.091 23.5123 105.869 23.7624 106.109 23.6136V25.029C106.109 25.9573 104.846 27.51 102.787 27.51Z" fill="#F55523"/>
<path d="M95.1086 26.6945H88.768L95.8185 18.7105V15.6901H84.1933V18.7137H91.0652L83.8179 26.6977V29.6936H96.194V27.6587C96.194 26.8416 95.5644 26.6945 95.1086 26.6945Z" fill="#F55523"/>
</svg>
