<svg width="25" height="25" viewBox="0 0 25 25" fill="none" xmlns="http://www.w3.org/2000/svg">
<path d="M17.5524 0H7.44764C3.34099 0 0 3.34099 0 7.44764V17.5524C0 21.659 3.34099 25 7.44764 25H17.5524C21.659 25 25 21.659 25 17.5524V7.44764C25 3.34099 21.659 0 17.5524 0ZM22.485 17.5524C22.485 20.2766 20.2766 22.485 17.5524 22.485H7.44764C4.72344 22.485 2.515 20.2766 2.515 17.5524V7.44764C2.515 4.72339 4.72344 2.515 7.44764 2.515H17.5524C20.2766 2.515 22.485 4.72339 22.485 7.44764V17.5524Z" fill="url(#paint0_linear)"/>
<path d="M12.4998 6.03418C8.93453 6.03418 6.03394 8.93477 6.03394 12.5C6.03394 16.0653 8.93453 18.9659 12.4998 18.9659C16.0651 18.9659 18.9657 16.0653 18.9657 12.5C18.9657 8.93473 16.0651 6.03418 12.4998 6.03418ZM12.4998 16.451C10.3178 16.451 8.54893 14.6821 8.54893 12.5001C8.54893 10.318 10.3178 8.54918 12.4998 8.54918C14.6819 8.54918 16.4507 10.318 16.4507 12.5001C16.4507 14.6821 14.6818 16.451 12.4998 16.451Z" fill="url(#paint1_linear)"/>
<path d="M18.9783 7.63192C19.834 7.63192 20.5277 6.93825 20.5277 6.08256C20.5277 5.22688 19.834 4.5332 18.9783 4.5332C18.1226 4.5332 17.429 5.22688 17.429 6.08256C17.429 6.93825 18.1226 7.63192 18.9783 7.63192Z" fill="url(#paint2_linear)"/>
<defs>
<linearGradient id="paint0_linear" x1="12.5" y1="24.9272" x2="12.5" y2="0.194179" gradientUnits="userSpaceOnUse">
<stop stop-color="#FBFAFD"/>
<stop offset="0.3" stop-color="#FBFAFD"/>
<stop offset="0.6" stop-color="#FBFAFD"/>
<stop offset="1" stop-color="#FBFAFD"/>
</linearGradient>
<linearGradient id="paint1_linear" x1="12.4998" y1="24.9273" x2="12.4998" y2="0.194251" gradientUnits="userSpaceOnUse">
<stop stop-color="#FBFAFD"/>
<stop offset="0.3" stop-color="#FBFAFD"/>
<stop offset="0.6" stop-color="#FBFAFD"/>
<stop offset="1" stop-color="#FBFAFD"/>
</linearGradient>
<linearGradient id="paint2_linear" x1="18.9783" y1="24.9271" x2="18.9783" y2="0.194086" gradientUnits="userSpaceOnUse">
<stop stop-color="#FBFAFD"/>
<stop offset="0.3" stop-color="#FBFAFD"/>
<stop offset="0.6" stop-color="#FBFAFD"/>
<stop offset="1" stop-color="#FBFAFD"/>
</linearGradient>
</defs>
</svg>
